<?xml version="1.0" encoding="UTF-8" standalone="no"?>
<!-- Created with Inkscape (http://www.inkscape.org/) -->

<svg
   width="1920mm"
   height="1080mm"
   viewBox="0 0 1920 1080"
   version="1.1"
   id="svg375"
   xml:space="preserve"
   xmlns="http://www.w3.org/2000/svg"
   xmlns:svg="http://www.w3.org/2000/svg"><defs
     id="defs372" /><g
     id="layer1"><path
       id="rect5"
       style="display:inline;fill:#51b1cb;fill-opacity:1;stroke-width:16.3729"
       d="m 1640,0 280,339.99999 V 0 Z M 0,740.00001 V 1080 h 279.99999 z" /><g
       id="g1720"
       transform="matrix(0.20446387,0,0,0.20446387,1616.5559,857.42513)"><ellipse
         style="fill:#51b1cb;fill-opacity:1;stroke:#000000;stroke-width:0.264999"
         id="path5"
         cx="1216.5359"
         cy="832.1286"
         rx="198.96666"
         ry="198.83437" /><path
         d="m 1113.8775,730.92547 c 11.8578,-0.0666 23.7155,-0.1179 35.5734,-0.14862 1.3999,-0.004 2.7998,-0.007 4.1997,-0.0113 0.2787,-7.7e-4 0.5574,-0.002 0.8445,-0.002 4.5128,-0.0127 9.0254,-0.0356 13.5381,-0.0624 4.6303,-0.0272 9.2606,-0.0434 13.891,-0.0493 2.8574,-0.004 5.7145,-0.0166 8.5717,-0.0402 1.9593,-0.0154 3.9184,-0.02 5.8777,-0.0163 1.1307,0.002 2.2607,-9.9e-4 3.3913,-0.0166 1.0358,-0.0142 2.0709,-0.0149 3.1068,-0.005 0.3739,10e-4 0.748,-0.002 1.1218,-0.0116 1.5759,-0.0363 2.7934,-0.0608 4.0194,1.00399 0.6024,0.73172 1.1266,1.47667 1.6438,2.26989 0.2539,0.29902 0.5145,0.59271 0.7854,0.87643 1.1429,1.21341 2.255,2.43636 3.2991,3.73724 0.8905,1.10725 1.8241,2.1552 2.7946,3.19153 1.1797,1.25966 2.2855,2.55712 3.3662,3.90364 0.6603,0.79621 1.3534,1.55721 2.0578,2.31407 0.9132,0.98124 1.79,1.98042 2.6293,3.02617 1.0169,1.26437 2.0987,2.44848 3.207,3.63176 1.0323,1.10847 1.9883,2.26428 2.9363,3.44585 0.708,0.84958 1.4518,1.65703 2.2076,2.46393 1.1743,1.25377 2.2731,2.54561 3.3486,3.88607 0.708,0.84958 1.4519,1.65703 2.2076,2.46393 1.1798,1.25965 2.2855,2.55711 3.3663,3.90364 0.6602,0.79621 1.3533,1.5572 2.0577,2.31407 0.9132,0.98124 1.79,1.98042 2.6293,3.02617 1.017,1.26437 2.0987,2.44848 3.207,3.63176 1.0323,1.10846 1.9883,2.26428 2.9363,3.44585 0.708,0.84957 1.4519,1.65703 2.2076,2.46393 1.1743,1.25377 2.2732,2.5456 3.3486,3.88607 0.708,0.84957 1.4519,1.65703 2.2077,2.46393 1.1743,1.25377 2.2731,2.5456 3.3486,3.88607 0.708,0.84957 1.4519,1.65702 2.2076,2.46393 1.1797,1.25965 2.2855,2.55711 3.3662,3.90364 0.6603,0.7962 1.3534,1.5572 2.0578,2.31407 0.9132,0.98123 1.7899,1.98042 2.6293,3.02617 1.0169,1.26437 2.0987,2.44847 3.2069,3.63175 1.0323,1.10847 1.9884,2.26428 2.9364,3.44585 0.7079,0.84958 1.4518,1.65703 2.2076,2.46393 1.1743,1.25377 2.2731,2.54561 3.3486,3.88607 0.708,0.84958 1.4519,1.65703 2.2076,2.46393 1.1743,1.25377 2.2732,2.54561 3.3487,3.88607 0.7079,0.84958 1.4518,1.65703 2.2076,2.46393 1.1797,1.25966 2.2854,2.55712 3.3662,3.90364 0.6603,0.79621 1.3533,1.5572 2.0577,2.31407 0.9133,0.98124 1.79,1.98042 2.6293,3.02617 1.017,1.26437 2.0987,2.44848 3.207,3.63176 1.0323,1.10847 1.9883,2.26428 2.9363,3.44585 0.708,0.84957 1.4519,1.65703 2.2076,2.46393 0.9655,1.03076 1.8937,2.07257 2.7782,3.175 1.0139,1.26281 2.0878,2.4535 3.1951,3.63389 0.2482,0.26479 0.4944,0.53151 0.7382,0.80033 0.4286,0.46766 0.4286,0.46766 0.9069,0.89873 1.2577,1.24164 1.592,2.14933 1.6166,3.90457 -0.01,0.42622 -0.01,0.42622 -0.016,0.86106 0,0.30649 0,0.61298 0,0.92876 0,0.84612 0,1.6917 -0.013,2.53775 -0.01,0.91402 -0.01,1.82802 0,2.74206 0,1.58207 0,3.164 -0.015,4.74603 -0.015,2.28731 -0.02,4.57455 -0.022,6.86191 0,3.71135 -0.016,7.42263 -0.034,11.13395 -0.017,3.60443 -0.03,7.20883 -0.038,10.81329 -5e-4,0.22231 0,0.44462 0,0.67367 0,1.11531 0,2.23062 -0.01,3.34593 -0.019,9.2474 -0.052,18.49471 -0.093,27.74203 -11.7859,0.0666 -23.5717,0.1179 -35.3577,0.14862 -1.3916,0.004 -2.7832,0.007 -4.1748,0.0112 -0.277,8e-4 -0.5541,0.002 -0.8395,0.002 -4.4852,0.0127 -8.9703,0.0356 -13.4554,0.0624 -4.6026,0.0272 -9.2051,0.0434 -13.8077,0.0493 -2.8399,0.004 -5.6794,0.0166 -8.5192,0.0403 -1.9477,0.0154 -3.8952,0.02 -5.8429,0.0163 -1.1237,-0.002 -2.2468,10e-4 -3.3704,0.0166 -1.0299,0.0142 -2.0589,0.0149 -3.0888,0.005 -0.3714,-10e-4 -0.743,0.002 -1.1143,0.0116 -1.5877,0.0369 -2.8046,0.0273 -4.0805,-0.98306 -0.6771,-0.73491 -1.274,-1.48465 -1.8634,-2.29084 -0.4004,-0.49218 -0.8026,-0.98299 -1.2072,-1.47174 -0.194,-0.24045 -0.3881,-0.48091 -0.588,-0.72864 -0.5745,-0.69604 -1.1688,-1.36605 -1.7767,-2.03295 -1.0369,-1.13769 -2.0086,-2.31754 -2.9765,-3.514 -0.5782,-0.69856 -1.1752,-1.37214 -1.786,-2.04225 -1.0369,-1.13769 -2.0086,-2.31754 -2.9765,-3.514 -0.5782,-0.69856 -1.1752,-1.37214 -1.786,-2.04225 -0.7998,-0.87839 -1.5677,-1.77209 -2.3151,-2.69544 -1.3798,-1.70382 -2.8213,-3.3515 -4.2607,-5.00487 -0.6834,-0.78714 -1.3618,-1.57848 -2.0397,-2.3704 -0.1299,-0.1517 -0.2597,-0.30341 -0.3936,-0.45972 -0.2616,-0.30566 -0.5232,-0.61135 -0.7847,-0.91706 -0.6596,-0.77069 -1.3199,-1.54073 -1.9801,-2.31085 -0.2646,-0.30867 -0.5292,-0.61735 -0.7938,-0.92604 -0.131,-0.15279 -0.2619,-0.30559 -0.3969,-0.46302 -5.6885,-6.63663 -11.377,-13.27326 -17.0656,-19.90989 -0.131,-0.15286 -0.262,-0.30572 -0.3971,-0.46322 -0.2639,-0.308 -0.5279,-0.61603 -0.7918,-0.9241 -0.6703,-0.78245 -1.3414,-1.56421 -2.014,-2.34476 -1.2146,-1.41099 -2.4215,-2.82479 -3.5936,-4.27157 -0.9392,-1.15757 -1.923,-2.26364 -2.9269,-3.36517 -0.8253,-0.92848 -1.6001,-1.89517 -2.3813,-2.86081 -0.5781,-0.69856 -1.1752,-1.37214 -1.7859,-2.04225 -1.0369,-1.13769 -2.0086,-2.31754 -2.9766,-3.514 -0.5781,-0.69856 -1.1752,-1.37214 -1.7859,-2.04225 -1.0369,-1.13769 -2.0086,-2.31754 -2.9766,-3.514 -0.5781,-0.69856 -1.1752,-1.37214 -1.7859,-2.04225 -1.0369,-1.13769 -2.0086,-2.31754 -2.9766,-3.514 -0.5781,-0.69856 -1.1752,-1.37214 -1.7859,-2.04225 -1.0369,-1.13769 -2.0086,-2.31754 -2.9766,-3.514 -0.5781,-0.69856 -1.1752,-1.37214 -1.7859,-2.04225 -0.7998,-0.87839 -1.5677,-1.77208 -2.3151,-2.69544 -1.3799,-1.70382 -2.8213,-3.35149 -4.2607,-5.00486 -0.6834,-0.78715 -1.3619,-1.57849 -2.0397,-2.3704 -0.1299,-0.15171 -0.2598,-0.30342 -0.3936,-0.45973 -0.2616,-0.30566 -0.5232,-0.61135 -0.7848,-0.91706 -0.6595,-0.77069 -1.3198,-1.54073 -1.9801,-2.31084 -0.2646,-0.30868 -0.5291,-0.61736 -0.7937,-0.92604 -0.131,-0.1528 -0.262,-0.3056 -0.3969,-0.46302 -6.9453,-8.10287 -6.9453,-8.10287 -13.8906,-16.20573 -0.1312,-0.15299 -0.2623,-0.30598 -0.3974,-0.46361 -0.2629,-0.30671 -0.5258,-0.61346 -0.7886,-0.92022 -0.6871,-0.80193 -1.3749,-1.60336 -2.0634,-2.40406 -0.1426,-0.16592 -0.2852,-0.33185 -0.432,-0.50281 -0.2713,-0.31572 -0.5428,-0.6313 -0.8145,-0.94671 -0.1852,-0.21564 -0.1852,-0.21564 -0.3741,-0.43563 -0.1073,-0.12468 -0.2145,-0.24936 -0.325,-0.37782 -0.1193,-0.14237 -0.2385,-0.28475 -0.3613,-0.43143 -0.2691,-0.25195 -0.2691,-0.25195 -0.5438,-0.50898 -0.7623,-1.20598 -0.6575,-2.28558 -0.6418,-3.68507 -9e-4,-0.29285 0,-0.5857 0,-0.88742 0,-0.9832 0,-1.9662 0.01,-2.94937 3e-4,-0.70401 10e-5,-1.40801 -5e-4,-2.11202 -6e-4,-1.51664 0,-3.03324 0.01,-4.54987 0.01,-2.19278 0.011,-4.38554 0.013,-6.57834 0,-3.55769 0.01,-7.11536 0.019,-10.67304 0.01,-3.45586 0.017,-6.91172 0.022,-10.36759 2e-4,-0.21303 5e-4,-0.42607 8e-4,-0.64556 0,-1.06874 0,-2.13749 0,-3.20623 0.011,-8.86566 0.03,-17.73129 0.053,-26.59693 z"
         fill="#fefefe"
         id="path2"
         style="stroke-width:0.264583" /><path
         d="m 1113.8775,829.08588 c 2.1394,2.13945 4.1412,4.35199 6.0379,6.7076 0.5707,0.69352 1.1622,1.35995 1.7673,2.02365 0.7998,0.87839 1.5677,1.77208 2.3151,2.69544 1.3795,1.70339 2.8206,3.35072 4.2596,5.0037 1.8261,2.10263 3.6295,4.22478 5.4263,6.35239 1.4147,1.67384 2.8431,3.33588 4.2709,4.99847 1.6697,1.94429 3.3359,3.89133 4.9895,5.84938 1.4147,1.67385 2.843,3.33592 4.2709,4.99854 1.6698,1.94429 3.3359,3.89133 4.9895,5.84938 1.4147,1.67384 2.8431,3.33592 4.2709,4.99853 1.6698,1.9443 3.3359,3.89134 4.9895,5.84939 1.4147,1.67384 2.8431,3.33591 4.2709,4.99853 1.6698,1.94429 3.3359,3.89133 4.9895,5.84938 1.4147,1.67385 2.8431,3.33592 4.2709,4.99854 1.6698,1.94429 3.3359,3.89133 4.9895,5.84938 1.4147,1.67384 2.8431,3.33592 4.271,4.99853 1.6697,1.9443 3.3358,3.89134 4.9895,5.84939 1.4146,1.67384 2.843,3.33591 4.2709,4.99853 1.6676,1.94179 3.334,3.88437 4.9825,5.84241 0.6572,0.77948 1.3204,1.55312 1.9907,2.32143 0.2205,0.25375 0.2205,0.25375 0.4455,0.51263 0.2858,0.32857 0.5728,0.65624 0.8609,0.98289 0.9808,1.1295 0.9808,1.1295 0.9808,1.71772 -29.337,0 -58.674,0 -88.9,0 0,-34.40112 0,-68.80225 0,-104.24583 z"
         fill="#fefefe"
         id="path3"
         style="stroke-width:0.264583" /><path
         d="m 1229.765,730.92547 c 29.4243,0 58.8486,0 89.1646,0 0,33.87725 0,67.7545 0,102.65833 -2.2162,-2.21622 -4.3142,-4.50134 -6.2766,-6.94634 -0.6603,-0.79621 -1.3534,-1.5572 -2.0578,-2.31407 -1.1349,-1.21973 -2.1971,-2.48122 -3.2422,-3.77962 -0.6176,-0.74654 -1.261,-1.4607 -1.9172,-2.17351 -0.8663,-0.94104 -1.695,-1.89749 -2.497,-2.89388 -0.9679,-1.20006 -1.987,-2.33349 -3.0364,-3.46122 -1.0004,-1.08144 -1.927,-2.21222 -2.8506,-3.36007 -0.6646,-0.79942 -1.359,-1.56254 -2.067,-2.32337 -1.135,-1.21974 -2.1971,-2.48122 -3.2422,-3.77962 -0.6176,-0.74654 -1.261,-1.46069 -1.9172,-2.17351 -0.8663,-0.94104 -1.695,-1.89749 -2.497,-2.89388 -0.9679,-1.20006 -1.987,-2.33349 -3.0364,-3.46122 -1.0004,-1.08144 -1.927,-2.21222 -2.8506,-3.36007 -0.6647,-0.79942 -1.359,-1.56253 -2.067,-2.32337 -1.135,-1.21973 -2.1972,-2.48121 -3.2422,-3.77961 -0.6176,-0.74654 -1.261,-1.4607 -1.9172,-2.17351 -0.8663,-0.94105 -1.695,-1.89749 -2.497,-2.89388 -0.9679,-1.20006 -1.987,-2.3335 -3.0364,-3.46123 -1.0005,-1.08143 -1.927,-2.21221 -2.8506,-3.36006 -0.6647,-0.79942 -1.359,-1.56254 -2.067,-2.32337 -1.135,-1.21974 -2.1972,-2.48122 -3.2422,-3.77962 -0.6177,-0.74654 -1.261,-1.4607 -1.9172,-2.17351 -0.8663,-0.94104 -1.695,-1.89749 -2.497,-2.89388 -0.9679,-1.20006 -1.987,-2.33349 -3.0365,-3.46122 -1.0004,-1.08144 -1.9269,-2.21222 -2.8505,-3.36007 -0.6647,-0.79942 -1.359,-1.56253 -2.0671,-2.32337 -1.1349,-1.21973 -2.1971,-2.48122 -3.2421,-3.77961 -0.6177,-0.74655 -1.261,-1.4607 -1.9172,-2.17352 -0.8663,-0.94104 -1.6951,-1.89749 -2.497,-2.89388 -0.9679,-1.20006 -1.987,-2.33349 -3.0365,-3.46122 -0.9991,-1.08002 -1.9248,-2.20894 -2.8464,-3.35593 -0.9055,-1.08781 -1.8725,-2.11332 -2.8443,-3.14193 -0.7285,-0.82564 -1.365,-1.72916 -2.005,-2.62516 z"
         fill="#fefefe"
         id="path4"
         style="stroke-width:0.264583" /></g></g></svg>
