<?xml version="1.0" encoding="UTF-8" standalone="no"?>
<!-- Created with Inkscape (http://www.inkscape.org/) -->

<svg
   width="1920mm"
   height="1080mm"
   viewBox="0 0 1920 1080"
   version="1.1"
   id="svg5"
   xml:space="preserve"
   xmlns="http://www.w3.org/2000/svg"
   xmlns:svg="http://www.w3.org/2000/svg"><defs
     id="defs2" /><g
     id="layer1"><g
       id="g1855"><ellipse
         style="fill:#7db83f;fill-opacity:1;stroke:#000000;stroke-width:0.0665494"
         id="path5"
         cx="1854.4822"
         cy="1014.821"
         rx="49.966724"
         ry="49.933498" /><path
         d="m 1828.7015,989.4058 c 2.9779,-0.0167 5.9557,-0.0296 8.9336,-0.0373 0.3516,-9.2e-4 0.7031,-0.002 1.0547,-0.003 0.07,-1.9e-4 0.1399,-3.8e-4 0.212,-5.8e-4 1.1333,-0.003 2.2666,-0.009 3.3999,-0.0157 1.1628,-0.007 2.3256,-0.0109 3.4885,-0.0124 0.7175,-10e-4 1.435,-0.004 2.1526,-0.0101 0.492,-0.004 0.984,-0.005 1.476,-0.004 0.284,4.7e-4 0.5678,-2.5e-4 0.8517,-0.004 0.2601,-0.004 0.5201,-0.004 0.7802,-10e-4 0.094,3e-4 0.1879,-6.2e-4 0.2817,-0.003 0.3958,-0.009 0.7015,-0.0153 1.0094,0.25214 0.1513,0.18376 0.2829,0.37083 0.4128,0.57004 0.064,0.0751 0.1292,0.14884 0.1973,0.2201 0.287,0.30472 0.5663,0.61184 0.8285,0.93853 0.2236,0.27807 0.4581,0.54124 0.7018,0.8015 0.2963,0.31634 0.574,0.64217 0.8454,0.98032 0.1658,0.19995 0.3398,0.39106 0.5167,0.58114 0.2294,0.24642 0.4495,0.49734 0.6603,0.75996 0.2554,0.31753 0.5271,0.61489 0.8054,0.91205 0.2592,0.27837 0.4993,0.56863 0.7374,0.86536 0.1778,0.21335 0.3646,0.41613 0.5544,0.61877 0.2949,0.31486 0.5709,0.63928 0.8409,0.97591 0.1778,0.21336 0.3647,0.41613 0.5544,0.61877 0.2963,0.31634 0.574,0.64217 0.8454,0.98033 0.1658,0.19995 0.3399,0.39106 0.5168,0.58113 0.2293,0.24643 0.4495,0.49733 0.6603,0.75993 0.2554,0.3176 0.527,0.6149 0.8053,0.9121 0.2593,0.2784 0.4994,0.5686 0.7374,0.8653 0.1778,0.2134 0.3646,0.4162 0.5544,0.6188 0.2949,0.3149 0.5709,0.6393 0.841,0.9759 0.1778,0.2134 0.3646,0.4162 0.5544,0.6188 0.2949,0.3149 0.5708,0.6393 0.8409,0.9759 0.1778,0.2134 0.3646,0.4161 0.5544,0.6188 0.2963,0.3163 0.574,0.6422 0.8454,0.9803 0.1658,0.2 0.3399,0.3911 0.5168,0.5811 0.2293,0.2465 0.4495,0.4974 0.6603,0.76 0.2553,0.3175 0.527,0.6149 0.8053,0.9121 0.2593,0.2783 0.4994,0.5686 0.7374,0.8653 0.1778,0.2134 0.3646,0.4161 0.5544,0.6188 0.2949,0.3148 0.5709,0.6393 0.841,0.9759 0.1778,0.2134 0.3646,0.4161 0.5544,0.6188 0.2949,0.3148 0.5708,0.6392 0.8409,0.9759 0.1778,0.2133 0.3646,0.4161 0.5544,0.6187 0.2963,0.3164 0.574,0.6422 0.8454,0.9804 0.1658,0.1999 0.3399,0.391 0.5168,0.5811 0.2293,0.2464 0.4495,0.4974 0.6603,0.76 0.2553,0.3175 0.527,0.6149 0.8053,0.912 0.2593,0.2784 0.4994,0.5687 0.7374,0.8654 0.1778,0.2133 0.3646,0.4161 0.5544,0.6188 0.2425,0.2588 0.4756,0.5204 0.6977,0.7973 0.2546,0.3171 0.5243,0.6161 0.8024,0.9126 0.062,0.066 0.1242,0.1335 0.1854,0.201 0.1076,0.1174 0.1076,0.1174 0.2277,0.2257 0.3159,0.3118 0.3998,0.5397 0.406,0.9805 0,0.1071 0,0.1071 0,0.2163 4e-4,0.077 8e-4,0.1539 0,0.2332 7e-4,0.2125 -8e-4,0.4248 0,0.6373 0,0.2295 0,0.4591 -9e-4,0.6886 2e-4,0.3973 0,0.7946 0,1.1919 0,0.5744 0,1.1488 -0.01,1.7232 0,0.9321 0,1.8641 -0.01,2.7961 0,0.9052 -0.01,1.8104 -0.01,2.7156 -10e-5,0.056 -3e-4,0.1116 -4e-4,0.1692 -6e-4,0.28 0,0.5601 0,0.8402 0,2.3223 -0.013,4.6446 -0.023,6.9669 -2.9598,0.017 -5.9196,0.03 -8.8795,0.037 -0.3494,9e-4 -0.6989,0 -1.0484,0 -0.07,2e-4 -0.1391,4e-4 -0.2108,6e-4 -1.1264,0 -2.2527,0.01 -3.3791,0.016 -1.1558,0.01 -2.3116,0.011 -3.4675,0.012 -0.7132,10e-4 -1.4263,0 -2.1395,0.01 -0.4891,0 -0.9782,0.01 -1.4673,0 -0.2822,-5e-4 -0.5642,2e-4 -0.8464,0 -0.2586,0 -0.517,0 -0.7757,0 -0.093,-4e-4 -0.1866,6e-4 -0.2798,0 -0.3987,0.01 -0.7044,0.01 -1.0248,-0.2469 -0.17,-0.1845 -0.3199,-0.3728 -0.4679,-0.5753 -0.1006,-0.1236 -0.2016,-0.2468 -0.3032,-0.3696 -0.049,-0.06 -0.098,-0.1208 -0.1477,-0.183 -0.1442,-0.1748 -0.2935,-0.343 -0.4461,-0.5105 -0.2604,-0.2857 -0.5045,-0.582 -0.7475,-0.8825 -0.1452,-0.1754 -0.2952,-0.3446 -0.4485,-0.5129 -0.2604,-0.2857 -0.5045,-0.582 -0.7476,-0.8824 -0.1451,-0.1755 -0.2951,-0.3446 -0.4485,-0.5129 -0.2008,-0.2206 -0.3937,-0.445 -0.5814,-0.6769 -0.3465,-0.4279 -0.7085,-0.8417 -1.07,-1.2569 -0.1716,-0.1977 -0.3419,-0.3964 -0.5122,-0.5953 -0.033,-0.038 -0.065,-0.076 -0.099,-0.1154 -0.066,-0.077 -0.1314,-0.1536 -0.1971,-0.2303 -0.1656,-0.1936 -0.3315,-0.387 -0.4973,-0.5803 -0.066,-0.078 -0.1329,-0.1551 -0.1993,-0.2326 -0.033,-0.038 -0.066,-0.077 -0.1,-0.1163 -1.4285,-1.6667 -2.8571,-3.3333 -4.2857,-5 -0.033,-0.038 -0.066,-0.077 -0.1,-0.1163 -0.066,-0.077 -0.1326,-0.1547 -0.1988,-0.2321 -0.1684,-0.1965 -0.3369,-0.3928 -0.5058,-0.5888 -0.305,-0.3544 -0.6081,-0.7094 -0.9025,-1.0727 -0.2359,-0.2907 -0.4829,-0.5685 -0.735,-0.8451 -0.2073,-0.2332 -0.4019,-0.476 -0.598,-0.7185 -0.1452,-0.1754 -0.2952,-0.3446 -0.4485,-0.5129 -0.2604,-0.2857 -0.5045,-0.582 -0.7476,-0.8824 -0.1451,-0.1755 -0.2951,-0.3446 -0.4485,-0.5129 -0.2604,-0.2857 -0.5044,-0.582 -0.7475,-0.8825 -0.1451,-0.1754 -0.2951,-0.3446 -0.4485,-0.5128 -0.2604,-0.2858 -0.5044,-0.5821 -0.7475,-0.8825 -0.1452,-0.1755 -0.2951,-0.3446 -0.4485,-0.5129 -0.2604,-0.2857 -0.5044,-0.582 -0.7475,-0.8825 -0.1452,-0.1754 -0.2951,-0.3446 -0.4485,-0.5128 -0.2008,-0.2206 -0.3937,-0.4451 -0.5814,-0.677 -0.3465,-0.4278 -0.7085,-0.8416 -1.07,-1.2568 -0.1716,-0.1977 -0.342,-0.3964 -0.5122,-0.5953 -0.033,-0.038 -0.065,-0.076 -0.099,-0.1155 -0.066,-0.077 -0.1313,-0.1535 -0.197,-0.2303 -0.1657,-0.1935 -0.3315,-0.3869 -0.4973,-0.5803 -0.066,-0.077 -0.1329,-0.155 -0.1993,-0.2325 -0.033,-0.038 -0.066,-0.077 -0.1,-0.1163 -1.7442,-2.0349 -1.7442,-2.0349 -3.4884,-4.0698 -0.033,-0.038 -0.066,-0.077 -0.1,-0.1164 -0.066,-0.077 -0.132,-0.1541 -0.198,-0.2311 -0.1726,-0.2014 -0.3453,-0.4027 -0.5182,-0.6037 -0.036,-0.042 -0.072,-0.083 -0.1085,-0.1263 -0.068,-0.079 -0.1363,-0.1586 -0.2045,-0.2378 -0.046,-0.054 -0.046,-0.054 -0.094,-0.1094 -0.027,-0.031 -0.054,-0.063 -0.082,-0.095 -0.03,-0.036 -0.06,-0.072 -0.091,-0.1084 -0.068,-0.063 -0.068,-0.063 -0.1366,-0.1278 -0.1914,-0.3029 -0.1651,-0.574 -0.1612,-0.9255 -2e-4,-0.074 -4e-4,-0.147 -6e-4,-0.2228 -5e-4,-0.2469 0,-0.4938 0,-0.7407 1e-4,-0.1768 1e-4,-0.3536 -10e-5,-0.5304 -10e-5,-0.3809 7e-4,-0.7617 0,-1.1426 0,-0.5507 0,-1.1013 0,-1.652 6e-4,-0.8935 0,-1.7869 0,-2.68035 0,-0.86788 0,-1.73575 0.01,-2.60363 10e-5,-0.0535 10e-5,-0.107 2e-4,-0.16212 4e-4,-0.26839 7e-4,-0.53679 10e-4,-0.80518 0,-2.22645 0.01,-4.45288 0.013,-6.67932 z"
         fill="#fefefe"
         id="path2"
         style="stroke-width:0.0664451" /><path
         d="m 1828.7015,1014.0569 c 0.5373,0.5373 1.04,1.0929 1.5163,1.6845 0.1433,0.1742 0.2919,0.3415 0.4438,0.5082 0.2009,0.2206 0.3937,0.445 0.5814,0.6769 0.3465,0.4278 0.7084,0.8415 1.0697,1.2566 0.4586,0.528 0.9115,1.061 1.3628,1.5953 0.3552,0.4203 0.7139,0.8377 1.0725,1.2552 0.4193,0.4883 0.8377,0.9773 1.253,1.469 0.3553,0.4204 0.714,0.8378 1.0726,1.2553 0.4193,0.4883 0.8377,0.9772 1.253,1.4689 0.3553,0.4204 0.714,0.8378 1.0726,1.2553 0.4193,0.4883 0.8377,0.9773 1.253,1.469 0.3553,0.4204 0.714,0.8378 1.0725,1.2553 0.4194,0.4883 0.8378,0.9772 1.2531,1.4689 0.3552,0.4204 0.7139,0.8378 1.0725,1.2553 0.4193,0.4883 0.8378,0.9773 1.253,1.469 0.3553,0.4204 0.714,0.8377 1.0726,1.2553 0.4193,0.4883 0.8377,0.9772 1.253,1.4689 0.3553,0.4204 0.714,0.8378 1.0726,1.2553 0.4188,0.4877 0.8372,0.9755 1.2512,1.4672 0.1651,0.1958 0.3316,0.3901 0.5,0.583 0.055,0.064 0.055,0.064 0.1118,0.1288 0.072,0.082 0.1439,0.1648 0.2162,0.2468 0.2464,0.2837 0.2464,0.2837 0.2464,0.4314 -7.3675,0 -14.7349,0 -22.3256,0 0,-8.6392 0,-17.2784 0,-26.1794 z"
         fill="#fefefe"
         id="path3"
         style="stroke-width:0.0664451" /><path
         d="m 1857.8045,989.4058 c 7.3894,0 14.7787,0 22.392,0 0,8.50763 0,17.0153 0,25.7807 -0.5566,-0.5566 -1.0834,-1.1304 -1.5763,-1.7444 -0.1658,-0.2 -0.3398,-0.3911 -0.5167,-0.5812 -0.285,-0.3063 -0.5518,-0.6231 -0.8142,-0.9492 -0.1551,-0.1874 -0.3167,-0.3668 -0.4815,-0.5458 -0.2176,-0.2363 -0.4257,-0.4765 -0.6271,-0.7267 -0.243,-0.3014 -0.499,-0.586 -0.7625,-0.8693 -0.2513,-0.2715 -0.4839,-0.5555 -0.7159,-0.8438 -0.1669,-0.2007 -0.3413,-0.3924 -0.5191,-0.5834 -0.285,-0.3064 -0.5517,-0.6232 -0.8142,-0.9492 -0.1551,-0.1875 -0.3167,-0.3668 -0.4815,-0.5459 -0.2175,-0.2363 -0.4256,-0.4765 -0.627,-0.7267 -0.2431,-0.3014 -0.499,-0.586 -0.7626,-0.8692 -0.2512,-0.2716 -0.4839,-0.5556 -0.7158,-0.8438 -0.167,-0.2008 -0.3413,-0.3924 -0.5191,-0.5835 -0.2851,-0.3063 -0.5518,-0.6231 -0.8143,-0.9492 -0.1551,-0.1875 -0.3166,-0.3668 -0.4814,-0.5458 -0.2176,-0.2364 -0.4257,-0.4765 -0.6271,-0.7268 -0.2431,-0.3013 -0.499,-0.586 -0.7625,-0.8692 -0.2513,-0.2716 -0.484,-0.5555 -0.7159,-0.84381 -0.1669,-0.20076 -0.3413,-0.3924 -0.5191,-0.58347 -0.285,-0.30631 -0.5518,-0.62311 -0.8142,-0.94918 -0.1551,-0.18748 -0.3167,-0.36682 -0.4815,-0.54583 -0.2175,-0.23633 -0.4257,-0.47652 -0.6271,-0.72675 -0.243,-0.30137 -0.499,-0.58601 -0.7625,-0.86922 -0.2512,-0.27158 -0.4839,-0.55555 -0.7159,-0.84381 -0.1669,-0.20077 -0.3413,-0.39241 -0.5191,-0.58348 -0.285,-0.30631 -0.5517,-0.62311 -0.8142,-0.94917 -0.1551,-0.18748 -0.3167,-0.36683 -0.4814,-0.54584 -0.2176,-0.23633 -0.4257,-0.47652 -0.6271,-0.72674 -0.2431,-0.30138 -0.499,-0.58602 -0.7626,-0.86923 -0.2509,-0.27122 -0.4833,-0.55473 -0.7148,-0.84277 -0.2274,-0.27319 -0.4702,-0.53073 -0.7143,-0.78904 -0.1829,-0.20734 -0.3428,-0.43425 -0.5035,-0.65926 z"
         fill="#fefefe"
         id="path4"
         style="stroke-width:0.0664451" /></g><path
       id="rect5"
       style="display:inline;fill:#7db83f;fill-opacity:1;stroke-width:16.3729"
       d="m 1640,0 280,340 V 0 Z M 0,740.00001 V 1080 h 279.99999 z" /></g></svg>
