<?xml version="1.0" encoding="UTF-8"?>
<!-- Created with Inkscape (http://www.inkscape.org/) -->
<svg width="1920" height="1080" version="1.1" viewBox="0 0 508 285.75" xml:space="preserve" xmlns="http://www.w3.org/2000/svg"><rect width="508" height="285.75" fill="#f9f9f9"/><g><rect x="-80.411" y="-106.07" width="220.79" height="159.53" fill-opacity="0" stroke-width=".13229"/><rect x="-62.12" y="-20.139" width="289.89" height="187.14" fill-opacity="0" stroke-width=".13229"/><path d="m433.92 0 74.083 89.958v-89.958zm-433.92 195.79v89.958h74.083z" fill="#d32874" stroke-width="4.332"/><ellipse cx="4.0672" cy="89.78" rx="133.41" ry="89.78" fill-opacity="0" stroke-width=".13229"/><g transform="matrix(.03018 0 0 .03018 461.62 226.22)" fill="#d32874"><path transform="translate(230,230)" d="m0 0c45.921-0.18831 91.841-0.36343 137.76-0.46577 0.67966-0.001519 1.3593-0.003037 2.0596-0.004602 14.771-0.032922 29.542-0.063394 44.313-0.091342 7.2437-0.013721 14.487-0.027983 21.731-0.042529 0.72083-0.001438 1.4417-0.002877 2.1843-0.004359 23.364-0.046874 46.727-0.1295 70.09-0.23066 24.009-0.10377 48.019-0.17147 72.028-0.1938 3.3913-0.00317 6.7826-0.00675 10.174-0.010585 1.0012-0.00111 1.0012-0.00111 2.0226-0.00225 10.078-0.012193 20.156-0.05609 30.234-0.11713 11.467-0.069204 22.933-0.10166 34.4-0.085485 5.8527 0.00706 11.704-0.00388 17.556-0.062745 5.3582-0.053504 10.714-0.056259 16.072-0.018628 1.9383 0.00465 3.8767-0.00933 5.8147-0.043827 14.495-0.24298 14.495-0.24298 19.638 3.7869 2.2781 2.7594 4.1036 5.5114 5.92 8.5868 1.0279 1.2074 2.0825 2.394 3.1875 3.5312 0.46608 0.49444 0.93215 0.98887 1.4124 1.4983 0.46205 0.48525 0.9241 0.9705 1.4002 1.4705 4.4626 4.7571 8.6383 9.665 12.723 14.754 2.4956 3.0093 5.115 5.8855 7.7773 8.7461 3.4516 3.7086 6.7652 7.4851 9.9375 11.438 3.8436 4.7787 7.9321 9.2541 12.121 13.726 3.9016 4.1895 7.5149 8.5579 11.098 13.024 2.6758 3.211 5.4873 6.2628 8.3438 9.3125 4.4383 4.7387 8.5914 9.6212 12.656 14.688 2.6758 3.211 5.4873 6.2628 8.3438 9.3125 4.4383 4.7387 8.5914 9.6212 12.656 14.688 2.6758 3.211 5.4874 6.2628 8.3438 9.3125 4.4587 4.7609 8.638 9.6647 12.723 14.754 2.4956 3.0093 5.115 5.8855 7.7773 8.7461 3.4516 3.7086 6.7652 7.4851 9.9375 11.438 3.8436 4.7787 7.9321 9.2541 12.121 13.726 3.9016 4.1895 7.5149 8.5579 11.098 13.024 2.6758 3.211 5.4873 6.2628 8.3438 9.3125 4.4383 4.7387 8.5914 9.6212 12.656 14.688 2.6758 3.211 5.4873 6.2628 8.3438 9.3125 4.4383 4.7387 8.5914 9.6212 12.656 14.688 2.6758 3.211 5.4874 6.2628 8.3438 9.3125 4.4587 4.7609 8.638 9.6647 12.723 14.754 2.4956 3.0093 5.115 5.8855 7.7773 8.7461 3.4516 3.7086 6.7652 7.4851 9.9375 11.438 3.8436 4.7787 7.9321 9.2541 12.121 13.726 3.9016 4.1895 7.5149 8.5579 11.098 13.024 2.6758 3.211 5.4873 6.2628 8.3438 9.3125 4.4383 4.7387 8.5914 9.6212 12.656 14.688 2.6758 3.211 5.4874 6.2628 8.3438 9.3125 4.4587 4.7609 8.638 9.6647 12.723 14.754 2.4956 3.0093 5.115 5.8855 7.7773 8.7461 3.4516 3.7086 6.7652 7.4851 9.9375 11.438 3.8436 4.7787 7.9321 9.2541 12.121 13.726 3.9016 4.1895 7.5149 8.5579 11.098 13.024 2.6758 3.211 5.4873 6.2628 8.3438 9.3125 4.4383 4.7387 8.5914 9.6212 12.656 14.688 2.6758 3.211 5.4873 6.2628 8.3438 9.3125 4.4383 4.7387 8.5914 9.6212 12.656 14.688 2.6758 3.211 5.4874 6.2628 8.3438 9.3125 4.4587 4.7609 8.638 9.6647 12.723 14.754 2.4956 3.0093 5.115 5.8855 7.7773 8.7461 3.4516 3.7086 6.7652 7.4851 9.9375 11.438 3.8436 4.7787 7.9321 9.2541 12.121 13.726 3.9016 4.1895 7.5149 8.5579 11.098 13.024 2.6758 3.211 5.4873 6.2628 8.3438 9.3125 4.4383 4.7387 8.5914 9.6212 12.656 14.688 2.6758 3.211 5.4873 6.2628 8.3438 9.3125 4.4383 4.7387 8.5914 9.6212 12.656 14.688 2.6758 3.211 5.4874 6.2628 8.3438 9.3125 4.4587 4.7609 8.638 9.6647 12.723 14.754 2.4956 3.0093 5.1149 5.8855 7.7773 8.7461 3.4516 3.7086 6.7652 7.4851 9.9375 11.438 3.366 4.1849 6.8943 8.1456 10.562 12.062 4.434 4.7358 8.6364 9.5866 12.672 14.672 2.1408 2.7588 2.1408 2.7588 4.2716 4.5212 4.7875 4.4762 6.6105 7.8444 7.0409 14.427 0.062 2.8619 0.024 5.7164-0.022 8.5783 0 1.5958 0.011 3.1916 0.021 4.7874 0.018 4.3699-0.014 8.7382-0.054 13.108-0.035 4.7177-0.023 9.4353-0.017 14.153 0 8.1687-0.021 16.337-0.066 24.505-0.065 11.81-0.086 23.62-0.096 35.43-0.017 19.162-0.071 38.324-0.1464 57.486-0.073 18.612-0.1301 37.224-0.164 55.836 0 1.1476 0 2.2953-0.01 3.4777-0.01 5.7574-0.021 11.515-0.031 17.272-0.083 47.749-0.2238 95.497-0.4026 143.25-45.673 0.2568-91.347 0.4956-137.02 0.6351-0.67629 0-1.3526 0-2.0494 0.01-14.699 0.045-29.397 0.087-44.096 0.1246-7.2085 0.019-14.417 0.038-21.625 0.058-0.71732 0-1.4346 0-2.1737 0.01-23.239 0.064-46.477 0.1766-69.716 0.3146-23.886 0.1416-47.772 0.2338-71.659 0.2642-3.376 0-6.7519 0.01-10.128 0.014h-2.0134c-11.342 0.019-22.684 0.099-34.026 0.1925-10.089 0.079-20.177 0.1033-30.266 0.084-5.8213-0.01-11.64 0.01-17.461 0.086-5.3344 0.073-10.664 0.077-15.999 0.025-1.9249-0.01-3.8502 0.013-5.7746 0.06-15.071 0.3481-15.071 0.3481-20.891-5.0849-2.8602-3.0862-5.3305-6.3802-7.715-9.8419-2.2712-3.1849-4.8663-6.0774-7.4505-9.0089-0.9926-1.1561-1.9837-2.3135-2.9727-3.4727-2.9861-3.4901-5.9752-6.9777-8.9648-10.465-1-1.1667-2-2.3333-3-3.5-0.495-0.5775-0.99-1.155-1.5-1.75-25.496-29.755-50.996-59.505-76.496-89.255-0.49524-0.57774-0.99048-1.1555-1.5007-1.7507-0.99772-1.1641-1.9953-2.3283-2.9927-3.4927-2.5336-2.9573-5.0701-5.912-7.6121-8.8621-4.5906-5.3329-9.1521-10.676-13.582-16.145-3.55-4.3751-7.2681-8.5555-11.062-12.719-3.1193-3.5092-6.0475-7.1629-9-10.812-2.185-2.6402-4.4417-5.186-6.75-7.7188-3.9189-4.2999-7.5917-8.7592-11.25-13.281-2.185-2.6402-4.4417-5.186-6.75-7.7188-3.9189-4.2999-7.5917-8.7592-11.25-13.281-2.185-2.6402-4.4417-5.186-6.75-7.7188-3.9189-4.2999-7.5917-8.7592-11.25-13.281-2.185-2.6402-4.4417-5.186-6.75-7.7188-3.9189-4.2999-7.5917-8.7592-11.25-13.281-2.185-2.6402-4.4417-5.186-6.75-7.7188-3.0228-3.3199-5.9251-6.6976-8.75-10.188-5.2152-6.4396-10.663-12.667-16.104-18.916-2.5828-2.975-5.147-5.9659-7.709-8.959-0.49089-0.57339-0.98178-1.1468-1.4876-1.7376-0.9888-1.1553-1.9775-2.3106-2.9661-3.4661-2.4928-2.9128-4.9885-5.8232-7.4839-8.7339-1-1.1667-2-2.3333-3-3.5-0.495-0.5775-0.99-1.155-1.5-1.75-25.5-29.75-51-59.5-76.5-89.25-0.49524-0.57774-0.99048-1.1555-1.5007-1.7507-0.99772-1.1641-1.9953-2.3283-2.9927-3.4927-2.5336-2.9573-5.0701-5.912-7.6121-8.8621-4.5906-5.3329-9.1521-10.676-13.582-16.145-3.55-4.3751-7.2681-8.5555-11.062-12.719-3.1193-3.5092-6.0475-7.1629-9-10.812-2.185-2.6402-4.4417-5.186-6.75-7.7188-3.9189-4.2999-7.5917-8.7592-11.25-13.281-2.185-2.6402-4.4417-5.186-6.75-7.7188-3.9189-4.2999-7.5917-8.7592-11.25-13.281-2.185-2.6402-4.4417-5.186-6.75-7.7188-3.9189-4.2999-7.5917-8.7592-11.25-13.281-2.185-2.6402-4.4417-5.186-6.75-7.7188-3.9189-4.2999-7.5917-8.7592-11.25-13.281-2.185-2.6402-4.4417-5.186-6.75-7.7188-3.0228-3.3199-5.9251-6.6976-8.75-10.188-5.2152-6.4396-10.663-12.667-16.104-18.916-2.5829-2.975-5.1471-5.9659-7.709-8.959-0.49089-0.57339-0.98178-1.1468-1.4875-1.7376-0.9888-1.1553-1.9775-2.3106-2.9661-3.4661-2.4928-2.9128-4.9885-5.8232-7.4839-8.7339-1-1.1667-2-2.3333-3-3.5-0.7425-0.86625-0.7425-0.86625-1.5-1.75-16.5-19.25-16.5-19.25-18.001-21.001-0.99588-1.1618-1.9918-2.3236-2.9878-3.4854-2.5635-2.9903-5.126-5.9815-7.6868-8.9741-0.78794-0.92039-0.78794-0.92039-1.5918-1.8594-0.98733-1.1534-1.9743-2.307-2.9609-3.4609-0.45697-0.53367-0.91394-1.0673-1.3848-1.6172-0.43005-0.51889-0.86009-1.0378-1.3032-1.5724-1.5457-1.813-1.5457-1.813-3.3671-3.3288-4.3662-4.0762-5.7153-7.2445-6.0778-13.213-0.029425-2.7547-0.021245-5.4929 0.019553-8.2459-0.003055-1.5331-0.009188-3.0662-0.018124-4.5992-0.015619-4.201 0.012298-8.4007 0.047446-12.602 0.03027-4.5343 0.019997-9.0686 0.014684-13.603-0.003668-7.8521 0.018268-15.704 0.057665-23.556 0.056924-11.353 0.075124-22.705 0.083916-34.058 0.015315-18.42 0.061885-36.839 0.12812-55.258 0.064267-17.891 0.11381-35.782 0.14355-53.674 0.001839-1.1031 0.003678-2.2062 0.005573-3.3427 0.009135-5.5339 0.017981-11.068 0.026683-16.602 0.07255-45.899 0.19583-91.798 0.35227-137.7z"/><path transform="translate(230,737)" d="m0 0c3.7648 1.2549 4.6938 2.831 7.125 5.9375 3.0257 3.7944 6.099 7.4819 9.375 11.062 3.0228 3.3199 5.9251 6.6976 8.75 10.188 5.2139 6.438 10.66 12.664 16.099 18.912 6.9018 7.9469 13.718 15.968 20.509 24.009 5.3467 6.3263 10.745 12.608 16.142 18.892 6.3109 7.3485 12.608 14.707 18.858 22.108 5.3469 6.3263 10.745 12.608 16.142 18.892 6.3109 7.3485 12.608 14.707 18.858 22.108 5.3469 6.3263 10.745 12.608 16.142 18.892 6.3109 7.3485 12.608 14.707 18.858 22.108 5.3469 6.3263 10.745 12.608 16.142 18.892 6.3109 7.3485 12.608 14.707 18.858 22.108 5.3469 6.3263 10.745 12.608 16.142 18.892 6.3109 7.3485 12.608 14.707 18.858 22.108 5.3469 6.3263 10.745 12.608 16.142 18.892 6.3109 7.3485 12.608 14.707 18.858 22.108 5.3469 6.3263 10.745 12.608 16.142 18.892 6.3109 7.3485 12.608 14.707 18.858 22.108 5.3469 6.3263 10.745 12.608 16.142 18.892 6.3109 7.3485 12.608 14.707 18.858 22.108 5.3469 6.3263 10.745 12.608 16.142 18.892 6.3109 7.3485 12.608 14.707 18.858 22.108 5.3469 6.3263 10.745 12.608 16.142 18.892 6.3109 7.3485 12.608 14.707 18.858 22.108 5.3469 6.3263 10.745 12.608 16.142 18.892 6.7754 7.8893 13.536 15.79 20.242 23.738 1.9555 2.3168 3.9206 4.6252 5.8906 6.9297 0.76655 0.899 0.76655 0.899 1.5486 1.8162 0.98715 1.1574 1.9762 2.3132 2.9673 3.4673 3.3513 3.9362 3.3513 3.9362 3.3513 5.0486h-462v-540z"/><path transform="translate(829,230)" d="m0 0h462v533c-7.7136-7.7136-14.871-15.763-21.719-24.25-3.1432-3.789-6.4828-7.3827-9.8164-11.004-2.3919-2.6648-4.6574-5.3944-6.9023-8.1836-3.6582-4.5357-7.5099-8.8195-11.476-13.082-3.7811-4.0873-7.2831-8.3611-10.774-12.699-2.5122-3.0214-5.1365-5.9056-7.8125-8.7812-4.2896-4.61-8.3041-9.3778-12.254-14.285-2.3344-2.8216-4.766-5.5208-7.2461-8.2148-3.2742-3.5567-6.4064-7.1716-9.4375-10.938-3.6582-4.5357-7.5099-8.8195-11.476-13.082-3.7811-4.0873-7.2831-8.3611-10.774-12.699-2.5122-3.0214-5.1365-5.9056-7.8125-8.7812-4.2896-4.61-8.3041-9.3778-12.254-14.285-2.3344-2.8216-4.766-5.5208-7.2461-8.2148-3.2742-3.5567-6.4064-7.1716-9.4375-10.938-3.6582-4.5357-7.5099-8.8195-11.476-13.082-3.7811-4.0873-7.2831-8.3611-10.774-12.699-2.5122-3.0214-5.1365-5.9056-7.8125-8.7812-4.2896-4.61-8.3041-9.3778-12.254-14.285-2.3344-2.8216-4.766-5.5208-7.2461-8.2148-3.2742-3.5567-6.4064-7.1716-9.4375-10.938-3.6582-4.5357-7.5099-8.8195-11.476-13.082-3.7811-4.0873-7.2831-8.3611-10.774-12.699-2.5122-3.0214-5.1365-5.9056-7.8125-8.7812-4.2896-4.61-8.3041-9.3778-12.254-14.285-2.3344-2.8216-4.766-5.5208-7.2461-8.2148-3.2742-3.5567-6.4064-7.1716-9.4375-10.938-3.6582-4.5357-7.5099-8.8195-11.476-13.082-3.7811-4.0873-7.2831-8.3611-10.774-12.699-2.5122-3.0214-5.1365-5.9056-7.8125-8.7812-4.2896-4.61-8.3041-9.3778-12.254-14.285-2.3344-2.8216-4.766-5.5208-7.2461-8.2148-3.2742-3.5567-6.4064-7.1716-9.4375-10.938-3.6582-4.5357-7.5099-8.8195-11.476-13.082-3.7811-4.0873-7.2831-8.3611-10.774-12.699-2.5122-3.0214-5.1365-5.9056-7.8125-8.7812-4.2896-4.61-8.3041-9.3778-12.254-14.285-2.3344-2.8216-4.766-5.5207-7.2461-8.2148-3.2742-3.5567-6.4064-7.1716-9.4375-10.938-3.6582-4.5357-7.5099-8.8195-11.476-13.082-3.7811-4.0873-7.2831-8.3611-10.774-12.699-2.5122-3.0214-5.1365-5.9057-7.8125-8.7812-4.2896-4.61-8.3041-9.3778-12.254-14.285-2.3344-2.8216-4.766-5.5208-7.2461-8.2148-4.1629-4.5249-8.0897-9.1916-11.949-13.977-1.832-2.2542-3.7051-4.4588-5.6133-6.6484-2.4375-2.875-2.4375-2.875-2.4375-3.875z"/><path transform="translate(230,1440)" d="m0 0h47c13.883 16.019 13.883 16.019 19.691 23.191 2.722 3.3116 5.51 6.5617 8.3086 9.8086 4.3158 5.0089 8.5453 10.076 12.711 15.211 3.0517 3.7183 6.17 7.3787 9.3088 11.024 3.5375 4.1413 6.6909 8.3796 9.9802 12.765l1-72h55v165h-47c-12.865-15.009-12.865-15.009-18.723-22.223-2.5594-3.1213-5.1633-6.2018-7.7773-9.2773-4.1199-4.8482-8.168-9.7485-12.184-14.684-3.4307-4.1712-6.9372-8.2766-10.445-12.383-3.6951-4.4191-7.2726-8.9355-10.871-13.434l-1 72h-55v-165z"/><path transform="translate(770,1440)" d="m0 0h47c5.9351 7.0142 11.828 14.001 17.621 21.121 2.7514 3.3297 5.5596 6.6067 8.3789 9.8789 4.3169 5.0104 8.5472 10.079 12.715 15.215 3.0238 3.6854 6.1112 7.3154 9.217 10.932 3.8526 4.5152 7.4097 9.1496 11.068 13.853l1-71h55v165h-46c-10.052-11.169-10.052-11.169-13.375-15.312-3.3252-4.1072-6.7016-8.1624-10.125-12.188-3.3546-3.9464-6.6722-7.9164-9.9375-11.938-3.9497-4.8541-8.0112-9.6028-12.097-14.342-4.02-4.6737-7.9403-9.4184-11.821-14.208-1.4875-1.888-1.4875-1.888-2.6445-3.0117l-1 71h-55v-165z"/><path transform="translate(499.65 1435.8)" d="m0 0c25.682-0.73246 50.86 5.7285 70.352 23.156 0.83274 0.73863 1.6655 1.4773 2.5234 2.2383 13.965 13.127 23.376 31.49 24.68 50.769 0.10005 3.2508 0.12555 6.4909 0.10913 9.7432-0.0074 1.7231-0.0074 1.7231-0.01489 3.481-0.32421 23.486-9.5938 43.414-26.298 59.769-18.03 16.887-42.054 23.422-66.25 23.312-1.284-5e-3 -2.568-0.01-3.8909-0.0149-8.9919-0.11127-17.209-0.67932-25.859-3.2976-1.7016-0.49307-1.7016-0.49307-3.4375-0.99609-22.178-7.1533-40.678-21.415-51.469-42.32-9.6601-19.95-11.696-44.018-5.281-65.289 0.39188-1.1202 0.78375-2.2404 1.1875-3.3945 0.35062-1.048 0.70125-2.096 1.0625-3.1758 7.9917-21.394 25.418-36.798 45.75-46.137 11.746-4.7618 24.203-7.3027 36.836-7.8437zm-22.332 58.191c-7.5336 10.652-10.683 22.274-8.8555 35.234 2.3046 12.513 7.1453 21.217 17.539 28.73 7.866 4.9977 17.583 6.0006 26.688 4.4375 10.157-2.8277 18.31-9.6467 23.625-18.664 5.3658-11.166 6.3323-23.945 2.6875-35.773-4.7492-11.174-10.12-18.634-21.129-24.047-14.061-5.4897-30.89-1.6002-40.555 10.082z"/><path transform="translate(1016.2 1439.9)" d="m0 0c0.97485 0.0022206 1.9497 0.0044412 2.9541 0.0067291 1.1011 7.553e-5 2.2021 1.5106e-4 3.3366 2.2888e-4 1.1979 0.0051613 2.3958 0.010323 3.63 0.01564 1.2194 0.0014149 2.4387 0.0028299 3.6951 0.0042877 3.9129 0.0056189 7.8257 0.018175 11.739 0.030869 2.6452 0.0050126 5.2904 0.0095759 7.9355 0.013672 6.5007 0.011054 13.001 0.02781 19.502 0.048828 4.5928 8.9802 8.8593 18.028 12.812 27.313 1.1345 2.6442 2.2723 5.2869 3.4102 7.9297 0.29925 0.69599 0.59851 1.392 0.90683 2.1091 3.4499 8.0143 6.9637 16 10.477 23.987 7.0408 16.005 14.055 32.022 21.031 48.055 0.69375 1.5942 1.3875 3.1885 2.0813 4.7827 0.34401 0.79051 0.68801 1.581 1.0424 2.3955 2.2777 5.2308 4.5651 10.457 6.8581 15.682 1.5979 3.6412 3.1932 7.2835 4.7884 10.926 0.76556 1.7461 1.5324 3.4916 2.3006 5.2364 1.0602 2.4084 2.1159 4.8187 3.1706 7.2294 0.47675 1.0782 0.47675 1.0782 0.96313 2.1783 2.158 4.9495 2.158 4.9495 2.158 7.1772h-58c-2.9633-6.5194-5.8439-12.873-8.3125-19.562-0.26361-0.69673-0.52723-1.3935-0.79883-2.1113-1.8887-5.0675-1.8887-5.0675-1.8887-7.3262h-62l-1 5c-2.97 7.92-5.94 15.84-9 24h-58c5.6203-14.613 5.6203-14.613 8.1719-20.336 0.41887-0.94398 0.41887-0.94398 0.84621-1.907 0.59725-1.3453 1.1959-2.69 1.7958-4.0342 1.6615-3.7235 3.3117-7.452 4.9635-11.18 0.51901-1.1703 0.51901-1.1703 1.0485-2.3643 3.8683-8.7299 7.6781-17.485 11.487-26.241 6.2592-14.385 12.554-28.754 18.872-43.113 4.1874-9.5197 8.3539-19.048 12.472-28.598 0.37394-0.86702 0.74789-1.7341 1.1332-2.6274 1.7871-4.1455 3.5706-8.2925 5.3495-12.441 0.63204-1.4693 1.2641-2.9385 1.8962-4.4077 0.28762-0.67389 0.57524-1.3478 0.87158-2.0421 2.4446-5.6726 2.4446-5.6726 5.3015-5.8282zm24.792 57.12c-3.9152 8.2341-7.1958 16.623-10.312 25.188-1.5469 4.2281-3.0938 8.4562-4.6875 12.812h30c-4.438-12.759-9.1408-25.396-14-38h-1z"/><path transform="translate(1287,1450)" d="m0 0c-2.7248 8.7251-6.2223 17.113-9.6875 25.562-0.61289 1.5005-1.2255 3.0012-1.8379 4.502-1.4885 3.6464-2.9806 7.2914-4.4746 10.936-4.7549-0.71396-8.636-1.9718-13.062-3.875-14.757-6.1387-32.276-10.068-47.938-5.125-2.9824 1.1354-2.9824 1.1354-5 3-1.182 3.2927-1.2227 5.7342 0 9 9.0609 3.9475 19.333 5.3447 28.982 7.3696 19.679 4.1475 41.576 8.8428 53.905 26.302 6.7318 11.54 7.8566 24.543 4.9258 37.516-4.2323 14.842-12.975 25.06-26.145 32.84-15.53 8.6379-33.048 10.542-50.48 10.348-1.1106-6e-3 -1.1106-6e-3 -2.2437-0.0131-11.531-0.07865-22.694-0.69758-33.944-3.3619-0.74024-0.16629-1.4805-0.33258-2.2432-0.50391-11.674-2.6815-22.108-7.0637-32.757-12.496 2.692-9.0662 6.7393-17.493 10.688-26.062 0.70941-1.5486 1.4184-3.0975 2.127-4.6465 1.7237-3.7659 3.453-7.5292 5.1856-11.291 0.50749 0.2214 1.015 0.44279 1.5378 0.6709 10.003 4.3433 19.881 8.5938 30.462 11.329 0.8134 0.2243 1.6268 0.44859 2.4648 0.67969 6.5074 1.5009 13.075 1.5562 19.723 1.6328 0.939 0.0177 1.878 0.0354 2.8455 0.0537 5.5873-6e-3 12.716-0.1153 16.967-4.3662 0.45795-4.0411 0.45795-4.0411-1.186-7.5718-7.3522-5.7887-19.53-6.8424-28.439-8.8032-41.8-9.471-41.8-9.471-54.125-27.375-6.3938-11.099-6.8536-24.598-4.5586-36.98 1.9503-6.9606 4.8832-12.586 9.3086-18.27 0.40477-0.59039 0.80953-1.1808 1.2266-1.7891 10.849-14.577 31.339-19.828 48.211-22.613 26.903-3.4095 55.395 1.1766 79.562 13.402z"/><path transform="translate(748,1450)" d="m0 0c-2.4431 7.7901-5.443 15.33-8.5608 22.869-0.58926 1.4325-1.1718 2.8678-1.748 4.3057-0.83947 2.0941-1.6984 4.1791-2.5623 6.2632-0.38145 0.96704-0.38145 0.96704-0.77061 1.9536-1.8392 4.3469-1.8392 4.3469-4.3256 5.6021-3.6129 0.01215-6.7393-1.7745-9.9702-3.2432-7.2368-3.137-14.265-5.385-22.062-6.75-0.73477-0.1302-1.4695-0.26039-2.2266-0.39453-9.3278-1.3936-18.94-1.2088-27.773 2.3945-2.3864 2.5034-2.9593 3.5113-3.25 7 1.6714 4.0115 3.342 4.3495 7.2271 5.9692 6.5358 2.2286 13.341 3.5297 20.085 4.9683 44.219 9.4827 44.219 9.4827 56.25 26.438 6.9948 11.176 7.9261 23.778 5.5625 36.5-3.1127 13.498-10.598 23.855-22.09 31.465-26.028 15.515-61.693 16.744-90.785 9.6602-0.85336-0.20399-1.7067-0.40799-2.5859-0.61816-11.553-2.8428-22.051-6.4948-32.414-12.382 2.4487-8.0239 5.7338-15.624 9.0979-23.296 0.97314-2.2236 1.9349-4.4519 2.8962-6.6807 0.61716-1.4144 1.235-2.8284 1.8535-4.2422 0.2865-0.66657 0.57299-1.3331 0.86818-2.0199 2.0551-4.6468 2.0551-4.6468 4.2842-5.7614 2.2633 0.97694 4.4294 2.0125 6.625 3.125 7.9122 3.8454 15.896 6.5706 24.375 8.875 0.8843 0.2475 1.7686 0.495 2.6797 0.75 6.4218 1.4772 12.948 1.4822 19.508 1.5625 0.93924 0.0178 1.8785 0.0356 2.8462 0.054 6.0193-7e-3 10.461-0.9147 15.966-3.3665 0.76523-3.3546 0.76523-3.3546 1-7-1.9661-2.6268-3.8998-3.5239-7.0078-4.3945-0.80929-0.2301-1.6186-0.4602-2.4524-0.69727-0.87938-0.23783-1.7588-0.47566-2.6648-0.7207-0.91999-0.25717-1.84-0.51434-2.7878-0.7793-6.1972-1.7042-12.429-3.2149-18.69-4.6646-18.652-4.3215-38.403-9.0442-49.866-25.904-6.7838-11.497-7.2354-25.482-4.8789-38.422 4.2641-13.963 13.253-24.796 26.047-31.686 33.94-17.283 78.9-13.904 112.3 3.2683z"/><path transform="translate(565,1655)" d="m0 0h15c3.0698 3.2517 4.2086 5.0908 6 9 1.2777 2.1946 2.5733 4.3789 3.8828 6.5547 0.6966 1.1943 1.3906 2.39 2.0823 3.5872 7.4037 12.801 15.006 25.436 23.035 37.858 0.49887-0.89977 0.99773-1.7995 1.5117-2.7266 5.0393-9.0447 10.187-18.021 15.554-26.876 2.7702-4.5949 5.3595-9.1716 7.6489-14.026 0.6596-1.3258 0.6596-1.3258 1.3325-2.6785 0.81799-1.6601 1.5874-3.3454 2.2959-5.0552 1.145-2.2546 1.145-2.2546 4.6567-5.6375h16v90h-17l-1-55c-6.4723 10.92-6.4723 10.92-12.94 21.843-0.78897 1.3266-1.5829 2.6502-2.3804 3.9716-2.013 3.3396-3.964 6.6828-5.7737 10.137-4.388 8.1823-4.388 8.1823-8.1057 10.303-2.945 0.47981-4.1885 0.2104-6.8005-1.2546-3.5003-3.9475-5.9277-8.3969-8.4375-13-0.6902-1.2153-1.3835-2.4289-2.0801-3.6406-2.1671-3.7829-4.3246-7.5712-6.4824-11.359l-10-16-1 54h-17v-90z"/><path transform="translate(684,1655)" d="m0 0c16 0 16 0 20.688 4.5 1.0517 1.5605 2.1012 3.1229 3.1108 4.7109 2.3192 3.4528 5.0497 6.5899 7.7017 9.7891 1.1265 1.3842 2.2515 2.7696 3.375 4.1562 2.535 3.12 5.0773 6.234 7.625 9.3438 3.8171 4.6629 7.6305 9.3289 11.438 14 0.56848 0.69545 1.137 1.3909 1.7227 2.1074 0.53367 0.65549 1.0673 1.311 1.6172 1.9863 0.47687 0.58459 0.95374 1.1692 1.4451 1.7715 1.1652 1.4909 2.228 3.0604 3.2776 4.6348l1-57h18v90c-15 0-15 0-18.703-2.5703-1.3225-1.6956-1.3225-1.6956-2.5469-3.5547-0.47558-0.63092-0.95117-1.2618-1.4412-1.9119-0.98607-1.3134-1.9529-2.6415-2.9001-3.9832-1.7827-2.5057-3.681-4.9056-5.5952-7.3115-1.3793-1.7351-2.7393-3.4841-4.0986-5.2349-3.0808-3.9329-6.3198-7.7225-9.5703-11.515-4.0099-4.7027-7.8327-9.541-11.617-14.426-1.7637-2.2729-3.4906-4.4554-5.5273-6.4922l-1 57h-18v-90z"/><path transform="translate(453.12 1664.3)" d="m0 0 2.875 2.6875c-1.4772 3.452-3.4379 5.6496-6.125 8.25-0.72445 0.70641-1.4489 1.4128-2.1953 2.1406-0.5543 0.53109-1.1086 1.0622-1.6797 1.6094-2.7578-1.3208-5.2718-2.8027-7.8125-4.5-8.3352-5.1752-17.655-5.9185-27.191-3.8477-8.0916 2.6222-14.483 6.9227-18.434 14.598-3.4529 7.7419-3.8631 16.631-1.7734 24.855 1.5835 4.0918 3.1153 6.8078 6.2109 9.8945v2c0.58394 0.28875 1.1679 0.5775 1.7695 0.875 1.3624 0.68718 2.7166 1.3915 4.0547 2.125 8.547 4.5871 16.591 5.9431 26.176 4l8-3 1-28h17c0.20728 5.1641 0.38606 10.314 0.49438 15.479 0.045146 1.7541 0.10648 3.5078 0.18457 5.2607 0.63003 14.511 0.63003 14.511-2.5027 18.698-2.3534 1.6204-4.4809 2.6335-7.1763 3.5627-1.0983 0.47051-2.1966 0.94102-3.3281 1.4258-1.4463 0.43893-1.4463 0.43893-2.9219 0.88672-1.4618 0.45826-1.4618 0.45826-2.9531 0.92578-15.267 4.1578-31.327 2.6914-45.172-5.0508-10.208-6.6236-17.307-16.062-20.156-28-2.2523-15.316 0.0556-28.17 8.8008-41.059 7.2692-9.406 18.872-14.445 30.23-16.879 15.394-1.0996 30.477 0.78162 42.625 11.062z"/><path transform="translate(1e3 1655)" d="m0 0h66v14h-48v23h43v14h-43v24h50v15h-68v-90z"/><path transform="translate(816.77 1654.9)" d="m0 0c0.74886 0.0052368 1.4977 0.010474 2.2693 0.015869 0.80889 0.0032227 1.6178 0.0064453 2.4512 0.0097656 0.85014 0.0083789 1.7003 0.016758 2.5762 0.025391 0.854 0.0045117 1.708 0.0090234 2.5879 0.013672 2.1166 0.011824 4.2331 0.02976 6.3496 0.048828 9.7316 20.938 19.375 41.908 28.695 63.032 0.30958 0.70125 0.61915 1.4025 0.93811 2.125 0.59938 1.3578 1.1983 2.7159 1.7966 4.0742 2.4198 5.4756 4.9457 10.897 7.5123 16.305 1.0576 2.4634 1.0576 2.4634 1.0576 4.4634h-19c-1.3377-3.1232-2.6703-6.2484-4-9.375-0.38156-0.88945-0.76312-1.7789-1.1562-2.6953-0.36094-0.85078-0.72188-1.7016-1.0938-2.5781-0.50274-1.1783-0.50274-1.1783-1.0156-2.3804-0.73438-1.9712-0.73438-1.9712-0.73438-3.9712-14.52 0.33-29.04 0.66-44 1l-8 19c-1 1-1 1-2.7659 1.1135-0.74886-0.0052-1.4977-0.01047-2.2693-0.01587-0.80889-0.0032-1.6178-0.0064-2.4512-0.0098-0.85014-0.0084-1.7003-0.01676-2.5762-0.02539-0.854-0.0045-1.708-9e-3 -2.5879-0.01367-2.1166-0.01182-4.2331-0.02976-6.3496-0.04883 2.3835-7.9927 5.8194-15.434 9.3221-22.981 1.8046-3.8886 3.5934-7.7845 5.385-11.679 0.54336-1.1794 0.54336-1.1794 1.0977-2.3826 3.4656-7.5276 6.873-15.08 10.258-22.645 0.53061-1.1846 1.0612-2.3693 1.6079-3.5898 3.4386-7.6923 6.8306-15.403 10.158-23.144 1.61-3.542 1.61-3.542 3.9377-3.6917zm6.2341 19.114c-2.1385 4.9652-4.2747 9.9315-6.4087 14.899-0.72689 1.691-1.4544 3.3818-2.1826 5.0723-1.0442 2.4243-2.086 4.8496-3.1274 7.2751-0.32811 0.76042-0.65621 1.5208-0.99426 2.3043-1.5861 3.1205-1.5861 3.1205-2.287 6.4496h31c-0.87061-4.3531-2.1211-7.9935-3.8711-12.016-0.28239-0.65644-0.56478-1.3129-0.85573-1.9892-0.59518-1.3793-1.1929-2.7576-1.793-4.1348-0.91928-2.1139-1.8261-4.2329-2.7322-6.3525-0.58064-1.3415-1.162-2.6826-1.7441-4.0234-0.2709-0.63537-0.5418-1.2707-0.82091-1.9254-1.3553-3.4213-1.3553-3.4213-4.183-5.559z"/><path transform="translate(946,1660)" d="m0 0c1.3283 3.9849 0.23204 5.4005-1.4375 9.1875-0.47309 1.0867-0.94617 2.1734-1.4336 3.293-0.37254 0.83144-0.74508 1.6629-1.1289 2.5195-0.52207-0.18176-1.0441-0.36352-1.582-0.55078-2.4649-0.8418-4.9388-1.6504-7.418-2.4492-1.3168-0.42926-1.3168-0.42926-2.6602-0.86719-9.5942-2.899-19.121-3.7321-28.34 0.86719-2.8796 2.4433-2.9648 3.7181-3.4375 7.5 0.5243 4.1944 1.1942 4.9106 4.4375 7.5 2.4235 0.96309 4.6923 1.7389 7.1875 2.4375 0.69617 0.20826 1.3923 0.41653 2.1096 0.6311 3.7245 1.1071 7.4663 2.1413 11.219 3.1501 9.6091 2.619 18.398 5.0344 24.484 13.531 3.1457 5.7035 3.6492 11.964 2.4375 18.312-2.0412 6.634-5.6542 12.257-11.688 15.812-1.5661 0.74564-3.15 1.4551-4.75 2.125-0.69223 0.3184-1.3845 0.6368-2.0977 0.96484-13.074 5.0038-31.217 3.1747-43.809-2.207-3.5423-1.7202-6.8163-3.5728-10.094-5.7578 1.5406-5.0151 3.0293-9.6147 6-14 4.7534 1.8821 9.4552 3.8794 14.16 5.8789 5.0899 2.0094 9.7036 2.3334 15.152 2.3711 0.73412 0.02062 1.4682 0.04125 2.2246 0.0625 5.9306 0.0421 10.912-0.92613 15.4-5.125 1.8835-3.8777 1.3934-7.1949 0.0625-11.188-4.6324-2.4145-10.046-3.4785-15.062-4.875-2.8089-0.79848-5.6165-1.6013-8.4238-2.4053-2.0924-0.59911-4.1857-1.195-6.2793-1.79-7.765-2.3693-14.4-5.4116-18.672-12.617-3.1231-6.621-3.7783-13.379-1.5-20.438 3.308-7.5809 8.8013-12.555 16.27-15.91 15.411-5.5733 34.419-4.1175 48.668 4.0352z"/><path transform="translate(465,1655)" d="m0 0c3.0465-0.24432 6.0734-0.42155 9.125-0.5625 0.85594-0.07541 1.7119-0.15082 2.5938-0.22852 3.5321-0.12226 6.1875-0.20235 8.8901 2.2522 1.6576 2.4294 3.0092 4.9416 4.3911 7.5388 1.142 1.9345 2.3068 3.8544 3.4712 5.7755 2.1627 3.579 4.2792 7.1853 6.4038 10.787 0.88779 1.5008 1.7758 3.0014 2.6641 4.502 2.1563 3.6436 4.3094 7.2891 6.4609 10.936 2.2558-2.756 4.3935-5.4419 6.1562-8.5391 0.56364-0.98142 0.56364-0.98142 1.1387-1.9827 0.59651-1.0411 0.59651-1.0411 1.2051-2.1033 0.89583-1.5013 1.7917-3.0026 2.6875-4.5039 1.9735-3.3447 3.7658-6.7368 5.5-10.211 6.6675-12.707 6.6675-12.707 11.604-14.485 5.3623-0.80201 10.415-0.18062 15.709 0.8252-4.1129 7.7447-8.5153 15.285-13.092 22.763-1.1263 1.8497-2.2391 3.707-3.3496 5.5663-3.1612 5.2705-6.2922 10.479-10.078 15.335-10.478 13.849-8.9049 29.694-8.4805 46.336h-18c0.04383-2.1966 0.08766-4.3931 0.13281-6.6562 0.34547-21.447 0.34547-21.447-9.3413-39.928-3.6922-4.9782-6.7028-10.422-9.8433-15.759-1.5419-2.6147-3.1014-5.2187-4.6623-7.8221-1.0902-1.8184-2.1775-3.6384-3.2644-5.4588-1.2951-2.1629-2.5954-4.3227-3.9023-6.4785-0.54979-0.90718-1.0996-1.8144-1.666-2.749-0.47792-0.78456-0.95584-1.5691-1.4482-2.3774-1.0049-1.771-1.0049-1.771-1.0049-2.771z"/><path transform="translate(1077,1655)" d="m0 0h77v15h-30v75h-18v-75h-29v-15z"/><path transform="translate(966,1655)" d="m0 0h18v90h-18v-90z"/><path transform="translate(493.75 1391.7)" d="m0 0c4.7833 4.9161 6.4984 9.5083 6.6875 16.375-0.29666 7.1559-1.9138 11.754-7.125 16.75-5.5835 4.5258-10.355 5.4771-17.438 5-7.049-0.95926-11.044-3.5596-15.578-8.8984-3.8225-5.6416-4.0305-11.302-3.2969-17.914 1.783-6.2351 5.6735-10.449 11-14 8.8138-4.2153 17.748-2.223 25.75 2.6875z"/><path transform="translate(1030.8 1391.7)" d="m0 0c4.9936 5.1323 6.5078 9.7734 6.6875 16.938-0.22512 6.4986-1.4966 10.119-5.75 15.062-5.6849 4.8917-11.275 6.4804-18.688 6.3125-6.4564-1.0831-11.789-3.9558-16-9-3.5303-5.9551-3.8699-12.412-2.6016-19.102 1.7658-5.9395 5.5948-9.4359 10.602-12.898 8.7436-4.2788 17.796-2.1931 25.75 2.6875z"/><path transform="translate(1080,1390)" d="m0 0c5.2736 4.5705 8.5761 8.5252 9.2383 15.516 0.20236 7.4553-0.79437 12.57-5.7812 18.238-4.7861 4.5451-9.413 6.2586-15.977 6.2383-7.009-0.48338-11.93-2.0587-16.73-7.3672-4.3541-5.1266-5.2722-10.123-5.1211-16.707 0.73235-5.7586 2.8968-10.787 7.3438-14.617 8.3348-5.4371 18.183-6.1779 27.027-1.3008z"/><path transform="translate(543,1390)" d="m0 0c5.1385 4.0874 8.4451 9.1551 9.3867 15.68 0.29235 7.2786-1.0956 12.579-5.9297 18.074-4.7861 4.5451-9.413 6.2586-15.977 6.2383-7.009-0.48338-11.93-2.0587-16.73-7.3672-4.463-5.2548-5.1445-10.189-5-16.906 0.58947-6.4105 3.3561-10.524 8.25-14.719 7.9554-5.433 17.542-5.6002 26-1z"/></g></g></svg>
